<?xml version="1.0" encoding="utf-8"?>
<!-- Generator: Adobe Illustrator 27.2.0, SVG Export Plug-In . SVG Version: 6.00 Build 0)  -->
<svg version="1.1" xmlns="http://www.w3.org/2000/svg" xmlns:xlink="http://www.w3.org/1999/xlink" x="0px" y="0px"
	 viewBox="0 0 48 48" style="enable-background:new 0 0 48 48;" xml:space="preserve">
<style type="text/css">
	.st0{fill:#CCFFFF;stroke:#000000;stroke-width:0.5;stroke-miterlimit:10;}
</style>
<g id="Layer_2">
	<circle class="st0" cx="24" cy="24" r="23.5"/>
</g>
<g id="Layer_1">
	<path d="M18,6V3h12v3H18z M22.5,28.4h3V16.9h-3V28.4z M24,45c-2.5,0-4.8-0.5-7-1.4c-2.2-1-4.1-2.2-5.7-3.9
		c-1.6-1.6-2.9-3.5-3.9-5.7S6,29.4,6,26.9s0.5-4.8,1.4-7s2.2-4.1,3.9-5.7s3.5-2.9,5.7-3.9c2.2-0.9,4.5-1.4,7-1.4
		c2.2,0,4.3,0.4,6.3,1.1s3.7,1.8,5.2,3.1l2.6-2.6l2.1,2.1l-2.5,2.6c1.2,1.3,2.2,3,3.1,4.9c0.8,1.9,1.3,4.2,1.3,6.8
		c0,2.5-0.5,4.8-1.4,7s-2.2,4.1-3.9,5.7c-1.6,1.6-3.5,2.9-5.7,3.9C28.8,44.5,26.5,45,24,45z M24,42c4.2,0,7.7-1.5,10.6-4.4
		c2.9-2.9,4.4-6.5,4.4-10.6s-1.5-7.7-4.4-10.6s-6.5-4.4-10.6-4.4s-7.7,1.5-10.6,4.4S9,22.8,9,26.9s1.5,7.7,4.4,10.6
		C16.3,40.5,19.8,42,24,42z"/>
</g>
</svg>
